<?xml version="1.0" standalone="no"?><!DOCTYPE svg PUBLIC "-//W3C//DTD SVG 1.1//EN" "http://www.w3.org/Graphics/SVG/1.1/DTD/svg11.dtd"><svg t="1708835421516" class="icon" viewBox="0 0 1024 1024" version="1.1" xmlns="http://www.w3.org/2000/svg" p-id="1529" xmlns:xlink="http://www.w3.org/1999/xlink" width="200" height="200"><path d="M169.38 446.34h685.25c11.05 0 20-8.95 20-20s-8.95-20-20-20H169.38c-11.05 0-20 8.95-20 20s8.95 20 20 20zM854.62 577.66H169.38c-11.05 0-20 8.95-20 20s8.95 20 20 20h685.25c11.05 0 20-8.95 20-20s-8.96-20-20.01-20zM626.34 754.83L512 869.17 397.66 754.83c-7.81-7.81-20.47-7.81-28.28 0s-7.81 20.47 0 28.29L497.86 911.6a19.92 19.92 0 0 0 14.14 5.86c5.12 0 10.24-1.95 14.14-5.86l128.48-128.48c7.81-7.81 7.81-20.47 0-28.29-7.8-7.82-20.47-7.82-28.28 0zM383.52 275.03c5.12 0 10.24-1.95 14.14-5.86L512 154.83l114.34 114.34c7.81 7.81 20.47 7.81 28.29 0 7.81-7.81 7.81-20.47 0-28.28L526.14 112.41a20.006 20.006 0 0 0-14.14-5.86c-5.3 0-10.39 2.11-14.14 5.86L369.37 240.89c-7.81 7.81-7.81 20.47 0 28.28 3.91 3.91 9.03 5.86 14.15 5.86z" fill="#333333" p-id="1530"></path></svg>