<?xml version="1.0" standalone="no"?><!DOCTYPE svg PUBLIC "-//W3C//DTD SVG 1.1//EN" "http://www.w3.org/Graphics/SVG/1.1/DTD/svg11.dtd"><svg height="240" node-id="1" sillyvg="true" template-height="240" template-width="240" version="1.1" viewBox="0 0 240 240" width="240" xmlns="http://www.w3.org/2000/svg" xmlns:xlink="http://www.w3.org/1999/xlink"><defs node-id="96"><clipPath id="fb4633af-a367-458a-b885-25be6b361ef5" node-id="5"><path d="M 134.00 190.28 L 168.00 178.28 L 126.17 177.78 L 134.00 190.28 Z" fill="#000000" fill-rule="nonzero" node-id="99" stroke="none" target-height="12.5" target-width="41.83" target-x="126.17" target-y="177.78"></path></clipPath><clipPath id="b1a3a160-783f-4314-883b-cbb7af6618dd" node-id="7"><path d="M 93.00 100.28 L 99.22 100.28 L 99.22 109.28 L 93.00 109.28 Z" fill="#000000" fill-rule="nonzero" node-id="103" stroke="none" target-height="9" target-width="6.220001" target-x="93" target-y="100.28"></path></clipPath><clipPath id="af1b8371-f0f5-4a5f-839f-963b9ff25e68" node-id="9"><path d="M 135.83 100.28 L 142.05 100.28 L 142.05 109.28 L 135.83 109.28 Z" fill="#000000" fill-rule="nonzero" node-id="107" stroke="none" target-height="9" target-width="6.220001" target-x="135.83" target-y="100.28"></path></clipPath><clipPath id="ae243dd9-23f3-4d8a-a59d-3313746cc6b2" node-id="11"><path d="M 133.27 146.78 L 184.96 146.78 L 184.96 183.92 L 133.27 183.92 L 133.27 146.78" fill="#000000" fill-rule="nonzero" node-id="111" stroke="none" target-height="37.14" target-width="51.690002" target-x="133.27" target-y="146.78"></path></clipPath></defs><path d="M 196.00 174.28 C 196.00 174.28 199.00 152.28 187.00 133.28 C 177.76 118.65 86.50 137.78 86.50 137.78 L 93.28 177.78 Z" fill="#ffffff" fill-rule="nonzero" node-id="116" stroke="none" target-height="59.129997" target-width="112.5" target-x="86.5" target-y="118.65"></path><path d="M 196.00 174.28 C 196.00 174.28 199.00 152.28 187.00 133.28 C 177.76 118.65 86.50 137.78 86.50 137.78 L 93.28 177.78 Z" fill="none" node-id="118" stroke="#16326f" stroke-linecap="butt" stroke-width="1.59" target-height="59.129997" target-width="112.5" target-x="86.5" target-y="118.65"></path><path d="M 113.22 145.11 L 105.72 156.11 L 80.08 145.11" fill="#ffffff" fill-rule="nonzero" node-id="120" stroke="none" target-height="11" target-width="33.14" target-x="80.08" target-y="145.11"></path><path d="M 113.22 145.11 L 105.72 156.11 L 80.08 145.11" fill="none" node-id="122" stroke="#16326f" stroke-linecap="round" stroke-width="1.49" target-height="11" target-width="33.14" target-x="80.08" target-y="145.11"></path><path d="M 131.86 145.11 L 139.35 156.11 L 178.50 144.78" fill="#ffffff" fill-rule="nonzero" node-id="124" stroke="none" target-height="11.330002" target-width="46.64" target-x="131.86" target-y="144.78"></path><path d="M 131.86 145.11 L 139.35 156.11 L 178.50 144.78" fill="none" node-id="126" stroke="#16326f" stroke-linecap="round" stroke-width="1.49" target-height="11.330002" target-width="46.64" target-x="131.86" target-y="144.78"></path><path d="M 114.66 154.78 C 113.36 163.94 112.06 173.10 110.75 182.25 L 122.54 193.92 L 134.32 182.25 L 130.42 154.78" fill="#ffffff" fill-rule="nonzero" node-id="128" stroke="none" target-height="39.14" target-width="23.570007" target-x="110.75" target-y="154.78"></path><path d="M 114.66 154.78 C 113.36 163.94 112.06 173.10 110.75 182.25 L 122.54 193.92 L 134.32 182.25 L 130.42 154.78" fill="none" node-id="130" stroke="#16326f" stroke-linecap="butt" stroke-width="1.49" target-height="39.14" target-width="23.570007" target-x="110.75" target-y="154.78"></path><path d="M 131.86 145.11 L 130.42 154.78 L 114.66 154.78 L 113.22 145.11" fill="#ffffff" fill-rule="nonzero" node-id="132" stroke="none" target-height="9.669998" target-width="18.64" target-x="113.22" target-y="145.11"></path><path d="M 131.86 145.11 L 130.42 154.78 L 114.66 154.78 L 113.22 145.11" fill="none" node-id="134" stroke="#16326f" stroke-linecap="round" stroke-width="1.49" target-height="9.669998" target-width="18.64" target-x="113.22" target-y="145.11"></path><path d="M 0.00 170.78 L 240.00 170.78 L 240.00 218.28 L 0.00 218.28 Z" fill="#ffffff" fill-rule="nonzero" node-id="136" stroke="none" target-height="47.5" target-width="240" target-x="0" target-y="170.78"></path><path d="M 0.00 170.78 L 240.00 170.78" fill="none" node-id="138" stroke="#16326f" stroke-linecap="butt" stroke-width="1" target-height="0" target-width="240" target-x="0" target-y="170.78"></path><path d="M 181.31 56.14 L 193.77 70.26 C 194.55 71.20 194.99 72.39 195.00 73.61 L 195.00 131.00 C 194.95 132.88 193.96 134.62 192.37 135.63 L 180.81 143.63 Z" fill="#ffffff" fill-rule="nonzero" node-id="140" stroke="none" target-height="87.490005" target-width="14.190002" target-x="180.81" target-y="56.14"></path><path d="M 181.31 56.14 L 193.77 70.26 C 194.55 71.20 194.99 72.39 195.00 73.61 L 195.00 131.00 C 194.95 132.88 193.96 134.62 192.37 135.63 L 180.81 143.63 Z" fill="none" node-id="142" stroke="#16326f" stroke-linecap="round" stroke-width="1.64" target-height="87.490005" target-width="14.190002" target-x="180.81" target-y="56.14"></path><path d="M 141.43 21.72 C 134.42 21.72 128.73 27.41 128.73 34.42 L 128.73 34.42 C 128.74 28.32 124.42 23.07 118.44 21.91 C 112.45 20.74 106.48 23.98 104.20 29.63 C 101.91 35.28 103.96 41.76 109.07 45.08 C 114.19 48.40 120.94 47.62 125.17 43.23 L 125.17 53.76 L 132.28 53.76 L 132.28 43.23 C 136.29 47.39 142.60 48.32 147.64 45.50 C 152.68 42.67 155.17 36.80 153.72 31.21 C 152.26 25.62 147.21 21.72 141.43 21.72 M 116.00 42.21 C 111.70 42.21 108.21 38.72 108.21 34.42 C 108.21 30.12 111.70 26.63 116.00 26.63 C 120.30 26.63 123.79 30.12 123.79 34.42 C 123.79 38.72 120.30 42.21 116.00 42.21 M 141.41 42.21 C 137.11 42.21 133.62 38.72 133.62 34.42 C 133.62 30.12 137.11 26.63 141.41 26.63 C 145.71 26.63 149.20 30.12 149.20 34.42 C 149.20 38.72 145.71 42.21 141.41 42.21" fill="#16326f" fill-rule="nonzero" node-id="144" stroke="none" target-height="33.02218" target-width="53.262222" target-x="101.912704" target-y="20.737818"></path><path d="M 65.87 113.52 L 64.58 113.52 C 62.42 113.51 60.67 111.76 60.66 109.60 L 60.66 88.60 C 60.67 86.44 62.42 84.69 64.58 84.68 L 65.87 84.68 C 68.03 84.69 69.78 86.44 69.79 88.60 L 69.79 109.60 C 69.78 111.76 68.03 113.51 65.87 113.52" fill="#ffffff" fill-rule="nonzero" node-id="146" stroke="none" target-height="28.839996" target-width="9.130001" target-x="60.66" target-y="84.68"></path><path d="M 64.58 84.65 L 65.87 84.65 C 68.03 84.65 69.79 86.41 69.79 88.57 L 69.79 109.60 C 69.79 111.76 68.03 113.52 65.87 113.52 L 64.58 113.52 C 62.42 113.52 60.66 111.76 60.66 109.60 L 60.66 88.57 C 60.66 86.41 62.42 84.65 64.58 84.65 Z" fill="none" node-id="148" stroke="#16326f" stroke-linecap="round" stroke-width="1.49" target-height="28.869995" target-width="9.130001" target-x="60.66" target-y="84.65"></path><path d="M 58.83 104.81 L 58.83 104.81 C 57.83 104.81 57.01 104.00 57.00 103.00 L 57.00 95.18 C 57.07 94.22 57.87 93.49 58.83 93.49 C 59.78 93.49 60.58 94.22 60.65 95.18 L 60.65 103.00 C 60.64 104.01 59.83 104.82 58.82 104.82" fill="#ffffff" fill-rule="nonzero" node-id="150" stroke="none" target-height="11.334831" target-width="3.6500015" target-x="57" target-y="93.48518"></path><path d="M 58.83 104.81 L 58.83 104.81 C 57.83 104.81 57.01 104.00 57.00 103.00 L 57.00 95.18 C 57.07 94.22 57.87 93.49 58.83 93.49 C 59.78 93.49 60.58 94.22 60.65 95.18 L 60.65 103.00 C 60.64 104.00 59.83 104.80 58.83 104.81 Z" fill="none" node-id="152" stroke="#16326f" stroke-linecap="round" stroke-width="1.49" target-height="11.324875" target-width="3.6500015" target-x="57" target-y="93.48518"></path><path d="M 64.58 84.65 L 65.87 84.65 C 68.03 84.65 69.79 86.41 69.79 88.57 L 69.79 109.60 C 69.79 111.76 68.03 113.52 65.87 113.52 L 64.58 113.52 C 62.42 113.52 60.66 111.76 60.66 109.60 L 60.66 88.57 C 60.66 86.41 62.42 84.65 64.58 84.65 Z" fill="none" node-id="154" stroke="#16326f" stroke-linecap="round" stroke-width="1.49" target-height="28.869995" target-width="9.130001" target-x="60.66" target-y="84.65"></path><path d="M 58.83 104.81 L 58.83 104.81 C 57.83 104.81 57.01 104.00 57.00 103.00 L 57.00 95.18 C 57.07 94.22 57.87 93.49 58.83 93.49 C 59.78 93.49 60.58 94.22 60.65 95.18 L 60.65 103.00 C 60.64 104.00 59.83 104.80 58.83 104.81 Z" fill="none" node-id="156" stroke="#16326f" stroke-linecap="round" stroke-width="1.49" target-height="11.324875" target-width="3.6500015" target-x="57" target-y="93.48518"></path><path d="M 139.43 21.72 C 132.42 21.72 126.73 27.41 126.73 34.42 L 126.73 34.42 C 126.74 28.32 122.42 23.07 116.44 21.91 C 110.45 20.74 104.48 23.98 102.20 29.63 C 99.91 35.28 101.96 41.76 107.07 45.08 C 112.19 48.40 118.94 47.62 123.17 43.23 L 123.17 53.76 L 130.28 53.76 L 130.28 43.23 C 134.29 47.39 140.60 48.32 145.64 45.50 C 150.68 42.67 153.17 36.80 151.72 31.21 C 150.26 25.62 145.21 21.72 139.43 21.72 M 114.00 42.21 C 109.70 42.21 106.21 38.72 106.21 34.42 C 106.21 30.12 109.70 26.63 114.00 26.63 C 118.30 26.63 121.79 30.12 121.79 34.42 C 121.79 38.72 118.30 42.21 114.00 42.21 M 139.41 42.21 C 135.11 42.21 131.62 38.72 131.62 34.42 C 131.62 30.12 135.11 26.63 139.41 26.63 C 143.71 26.63 147.20 30.12 147.20 34.42 C 147.20 38.72 143.71 42.21 139.41 42.21" fill="#ffffff" fill-rule="nonzero" node-id="158" stroke="none" target-height="33.02218" target-width="53.262222" target-x="99.912704" target-y="20.737818"></path><path d="M 139.43 21.72 C 132.42 21.72 126.73 27.41 126.73 34.42 L 126.73 34.42 C 126.74 28.32 122.42 23.07 116.44 21.91 C 110.45 20.74 104.48 23.98 102.20 29.63 C 99.91 35.28 101.96 41.76 107.07 45.08 C 112.19 48.40 118.94 47.62 123.17 43.23 L 123.17 53.76 L 130.28 53.76 L 130.28 43.23 C 134.29 47.39 140.60 48.32 145.64 45.50 C 150.68 42.67 153.17 36.80 151.72 31.21 C 150.26 25.62 145.21 21.72 139.43 21.72 Z M 114.00 42.21 C 109.70 42.21 106.21 38.72 106.21 34.42 C 106.21 30.12 109.70 26.63 114.00 26.63 C 118.30 26.63 121.79 30.12 121.79 34.42 C 121.79 38.72 118.30 42.21 114.00 42.21 Z M 139.41 42.21 C 135.11 42.21 131.62 38.72 131.62 34.42 C 131.62 30.12 135.11 26.63 139.41 26.63 C 143.71 26.63 147.20 30.12 147.20 34.42 C 147.20 38.71 143.72 42.20 139.43 42.21 Z" fill="none" node-id="160" stroke="#16326f" stroke-linecap="round" stroke-width="1.49" target-height="33.02218" target-width="53.262222" target-x="99.912704" target-y="20.737818"></path><path d="M 151.12 97.09 C 151.12 97.67 150.65 98.14 150.07 98.14 C 149.50 98.14 149.03 97.67 149.03 97.09 C 149.03 96.51 149.50 96.05 150.07 96.05 C 150.65 96.05 151.12 96.51 151.12 97.09" fill="#ffffff" fill-rule="nonzero" node-id="162" stroke="none" target-height="2.090004" target-width="2.0899963" target-x="149.03" target-y="96.045"></path><path d="M 178.11 144.49 L 70.36 144.49 C 67.95 144.47 66.00 142.51 66.00 140.10 L 66.00 58.10 C 66.01 55.68 67.96 53.72 70.38 53.71 L 178.11 53.71 C 180.53 53.72 182.49 55.68 182.50 58.10 L 182.50 140.10 C 182.49 142.52 180.53 144.48 178.11 144.49" fill="#ffffff" fill-rule="nonzero" node-id="164" stroke="none" target-height="90.78001" target-width="116.50005" target-x="65.99995" target-y="53.71"></path><path d="M 70.37 53.68 L 178.11 53.68 C 180.53 53.68 182.50 55.65 182.50 58.07 L 182.50 140.10 C 182.50 142.52 180.53 144.49 178.11 144.49 L 70.37 144.49 C 67.95 144.49 65.98 142.52 65.98 140.10 L 65.98 58.07 C 65.98 55.65 67.95 53.68 70.37 53.68 Z" fill="none" node-id="166" stroke="#16326f" stroke-linecap="butt" stroke-width="1.46" target-height="90.810005" target-width="116.52" target-x="65.98" target-y="53.68"></path><path d="M 165.25 61.20 L 115.53 69.57 C 115.18 69.64 114.82 69.64 114.47 69.57 L 78.75 61.20 C 76.75 60.81 75.00 62.60 75.00 64.94 L 75.00 133.23 C 75.00 135.57 76.79 137.36 78.75 136.97 L 114.47 128.63 C 114.82 128.56 115.18 128.56 115.53 128.63 L 165.25 137.00 C 167.25 137.39 169.00 135.60 169.00 133.26 L 169.00 64.94 C 169.00 62.60 167.21 60.81 165.25 61.20" fill="#ffffff" fill-rule="nonzero" node-id="168" stroke="none" target-height="76.58" target-width="94" target-x="75" target-y="60.81"></path><path d="M 165.25 61.20 L 115.53 69.57 C 115.18 69.64 114.82 69.64 114.47 69.57 L 78.75 61.20 C 76.75 60.81 75.00 62.60 75.00 64.94 L 75.00 133.23 C 75.00 135.57 76.79 137.36 78.75 136.97 L 114.47 128.63 C 114.82 128.56 115.18 128.56 115.53 128.63 L 165.25 137.00 C 167.25 137.39 169.00 135.60 169.00 133.26 L 169.00 64.94 C 169.00 62.60 167.21 60.81 165.25 61.20 Z" fill="none" node-id="170" stroke="#16326f" stroke-linecap="butt" stroke-width="1.48" target-height="76.58" target-width="94" target-x="75" target-y="60.81"></path><path d="M 192.59 113.52 L 193.87 113.52 C 196.03 113.51 197.78 111.76 197.79 109.60 L 197.79 88.60 C 197.78 86.44 196.03 84.69 193.87 84.68 L 192.59 84.68 C 190.43 84.69 188.67 86.44 188.66 88.60 L 188.66 109.60 C 188.67 111.76 190.43 113.51 192.59 113.52" fill="#ffffff" fill-rule="nonzero" node-id="172" stroke="none" target-height="28.839996" target-width="9.12999" target-x="188.66" target-y="84.68"></path><path d="M 192.58 84.65 L 193.87 84.65 C 196.03 84.65 197.79 86.41 197.79 88.57 L 197.79 109.60 C 197.79 111.76 196.03 113.52 193.87 113.52 L 192.58 113.52 C 190.42 113.52 188.66 111.76 188.66 109.60 L 188.66 88.57 C 188.66 86.41 190.42 84.65 192.58 84.65 Z" fill="none" node-id="174" stroke="#16326f" stroke-linecap="round" stroke-width="1.49" target-height="28.869995" target-width="9.12999" target-x="188.66" target-y="84.65"></path><path d="M 196.62 104.81 L 196.62 104.81 C 197.62 104.80 198.43 103.99 198.44 102.99 L 198.44 95.18 C 198.37 94.22 197.57 93.49 196.62 93.49 C 195.66 93.49 194.86 94.22 194.79 95.18 L 194.79 103.00 C 194.80 104.01 195.61 104.82 196.62 104.82" fill="#ffffff" fill-rule="nonzero" node-id="176" stroke="none" target-height="11.334831" target-width="3.6500092" target-x="194.79" target-y="93.48518"></path><path d="M 196.62 104.81 L 196.62 104.81 C 197.62 104.80 198.43 103.99 198.44 102.99 L 198.44 95.18 C 198.37 94.22 197.57 93.49 196.62 93.49 C 195.66 93.49 194.86 94.22 194.79 95.18 L 194.79 103.00 C 194.80 104.00 195.62 104.81 196.62 104.81 Z" fill="none" node-id="178" stroke="#16326f" stroke-linecap="round" stroke-width="1.49" target-height="11.324875" target-width="3.6500092" target-x="194.79" target-y="93.48518"></path><path d="M 95.00 104.37 C 95.00 105.85 91.10 107.04 86.28 107.04 C 81.46 107.04 77.55 105.85 77.55 104.37 C 77.55 102.89 81.46 101.70 86.28 101.70 C 91.10 101.70 95.00 102.89 95.00 104.37" fill="#ececec" fill-rule="nonzero" node-id="180" stroke="none" target-height="5.340004" target-width="17.449997" target-x="77.55" target-y="101.7"></path><path d="M 156.00 104.37 C 156.00 105.85 152.10 107.04 147.28 107.04 C 142.46 107.04 138.55 105.85 138.55 104.37 C 138.55 102.89 142.46 101.70 147.28 101.70 C 152.10 101.70 156.00 102.89 156.00 104.37" fill="#ececec" fill-rule="nonzero" node-id="182" stroke="none" target-height="5.340004" target-width="17.449997" target-x="138.55" target-y="101.7"></path><path d="M 138.00 102.28 C 138.52 103.37 139.19 104.38 140.00 105.28 C 140.39 105.71 140.85 106.09 141.34 106.41 C 141.86 106.74 142.41 107.03 142.97 107.28 C 142.32 107.32 141.66 107.20 141.06 106.94 C 140.44 106.69 139.89 106.31 139.44 105.82 C 138.52 104.87 138.00 103.60 137.97 102.28" fill="#16326f" fill-rule="nonzero" node-id="184" stroke="none" target-height="5.0410995" target-width="5" target-x="137.97" target-y="102.28"></path><path d="M 97.00 102.28 C 96.97 103.60 96.45 104.87 95.53 105.82 C 95.08 106.31 94.53 106.69 93.91 106.94 C 93.31 107.20 92.65 107.32 92.00 107.28 C 92.56 107.03 93.11 106.74 93.63 106.41 C 94.14 106.10 94.60 105.72 95.00 105.28 C 95.81 104.38 96.48 103.37 97.00 102.28" fill="#16326f" fill-rule="nonzero" node-id="186" stroke="none" target-height="5.0410995" target-width="5" target-x="92" target-y="102.28"></path><path d="M 147.34 94.62 C 147.34 99.41 145.01 103.29 142.13 103.29 C 139.25 103.29 136.93 99.41 136.93 94.62 C 136.93 89.83 139.26 85.95 142.13 85.95 C 145.00 85.95 147.34 89.83 147.34 94.62" fill="#16326f" fill-rule="nonzero" node-id="188" stroke="none" target-height="17.340004" target-width="10.410004" target-x="136.93" target-y="85.95"></path><path d="M 145.18 94.62 C 145.18 97.42 143.82 99.69 142.13 99.69 C 140.44 99.69 139.13 97.42 139.13 94.62 C 139.13 91.82 140.49 89.54 142.13 89.54 C 143.77 89.54 145.18 91.81 145.18 94.62" fill="#2158c7" fill-rule="nonzero" node-id="190" stroke="none" target-height="10.150002" target-width="6.049988" target-x="139.13" target-y="89.54"></path><path d="M 98.52 94.62 C 98.52 99.41 96.19 103.29 93.32 103.29 C 90.45 103.29 88.11 99.41 88.11 94.62 C 88.11 89.83 90.44 86.00 93.32 86.00 C 96.20 86.00 98.52 89.88 98.52 94.67" fill="#16326f" fill-rule="nonzero" node-id="192" stroke="none" target-height="17.29" target-width="10.409996" target-x="88.11" target-y="86"></path><path d="M 96.36 94.62 C 96.36 97.42 95.00 99.69 93.36 99.69 C 91.72 99.69 90.36 97.42 90.36 94.62 C 90.36 91.82 91.72 89.54 93.36 89.54 C 95.00 89.54 96.36 91.81 96.36 94.62" fill="#2158c7" fill-rule="nonzero" node-id="194" stroke="none" target-height="10.150002" target-width="6" target-x="90.36" target-y="89.54"></path><path d="M 31.00 147.76 L 110.59 147.76 L 113.50 143.78 L 35.18 143.78 L 31.00 147.76 Z" fill="#ffffff" fill-rule="nonzero" node-id="196" stroke="none" target-height="3.9799957" target-width="82.5" target-x="31" target-y="143.78"></path><path d="M 183.50 175.53 L 119.77 175.78 L 57.17 194.64 L 132.39 194.64 L 183.50 175.53 Z" fill="#ffffff" fill-rule="nonzero" node-id="198" stroke="none" target-height="19.11" target-width="126.33" target-x="57.17" target-y="175.53"></path><path d="M 183.50 175.53 L 119.77 175.78 L 57.17 194.64 L 132.39 194.64 L 183.50 175.53 Z" fill="none" node-id="200" stroke="#16326f" stroke-linecap="round" stroke-width="1.09" target-height="19.11" target-width="126.33" target-x="57.17" target-y="175.53"></path><path d="M 134.00 190.28 L 168.00 178.28 L 126.17 177.78 L 134.00 190.28 Z" fill="#b2b2b2" fill-rule="nonzero" node-id="202" stroke="none" target-height="12.5" target-width="41.83" target-x="126.17" target-y="177.78"></path><g node-id="279"><g clip-path="url(#fb4633af-a367-458a-b885-25be6b361ef5)" group-id="1" id="sillyvg_g_0" node-id="204"><path d="M 164.50 180.78 L 117.50 180.78" fill="none" group-id="1" node-id="206" stroke="#16326f" stroke-linecap="round" stroke-width="0.4" target-height="0" target-width="47" target-x="117.5" target-y="180.78"></path><path d="M 157.50 183.78 L 123.50 183.78" fill="none" group-id="1" node-id="208" stroke="#16326f" stroke-linecap="round" stroke-width="0.4" target-height="0" target-width="34" target-x="123.5" target-y="183.78"></path><path d="M 146.50 186.78 L 124.50 186.78" fill="none" group-id="1" node-id="210" stroke="#16326f" stroke-linecap="butt" stroke-width="0.4" target-height="0" target-width="22" target-x="124.5" target-y="186.78"></path><path d="M 128.60 188.65 L 164.50 176.78" fill="#b2b2b2" fill-rule="nonzero" group-id="1" node-id="212" stroke="none" target-height="11.869995" target-width="35.899994" target-x="128.6" target-y="176.78"></path><path d="M 128.60 188.65 L 164.50 176.78" fill="none" group-id="1" node-id="214" stroke="#16326f" stroke-linecap="round" stroke-width="0.4" target-height="11.869995" target-width="35.899994" target-x="128.6" target-y="176.78"></path><path d="M 125.50 185.78 L 153.50 176.78" fill="#b2b2b2" fill-rule="nonzero" group-id="1" node-id="216" stroke="none" target-height="9" target-width="28" target-x="125.5" target-y="176.78"></path><path d="M 125.50 185.78 L 153.50 176.78" fill="none" group-id="1" node-id="218" stroke="#16326f" stroke-linecap="round" stroke-width="0.4" target-height="9" target-width="28" target-x="125.5" target-y="176.78"></path><path d="M 123.50 182.78 L 142.13 176.69" fill="#b2b2b2" fill-rule="nonzero" group-id="1" node-id="220" stroke="none" target-height="6.0899963" target-width="18.630005" target-x="123.5" target-y="176.69"></path><path d="M 123.50 182.78 L 142.13 176.69" fill="none" group-id="1" node-id="222" stroke="#16326f" stroke-linecap="round" stroke-width="0.4" target-height="6.0899963" target-width="18.630005" target-x="123.5" target-y="176.69"></path></g></g><path d="M 134.00 190.28 L 168.00 178.28 L 126.17 177.78 L 134.00 190.28 Z" fill="none" node-id="225" stroke="#16326f" stroke-linecap="round" stroke-width="1" target-height="12.5" target-width="41.83" target-x="126.17" target-y="177.78"></path><path d="M 110.59 147.76 L 113.50 143.78 L 136.50 192.78 L 132.50 198.78 L 110.59 147.76 Z" fill="#ffffff" fill-rule="nonzero" node-id="227" stroke="none" target-height="55" target-width="25.910004" target-x="110.59" target-y="143.78"></path><path d="M 110.59 147.76 L 113.50 143.78 L 136.50 192.78 L 132.50 198.78 L 110.59 147.76 Z" fill="none" node-id="229" stroke="#16326f" stroke-linecap="round" stroke-width="1.09" target-height="55" target-width="25.910004" target-x="110.59" target-y="143.78"></path><path d="M 57.17 194.64 L 58.17 198.91 L 132.39 198.91 L 132.39 194.64 L 57.17 194.64 Z" fill="#ffffff" fill-rule="nonzero" node-id="231" stroke="none" target-height="4.2700043" target-width="75.22" target-x="57.17" target-y="194.64"></path><path d="M 57.17 194.64 L 58.17 198.91 L 132.39 198.91 L 132.39 194.64 L 57.17 194.64 Z" fill="none" node-id="233" stroke="#16326f" stroke-linecap="round" stroke-width="1.09" target-height="4.2700043" target-width="75.22" target-x="57.17" target-y="194.64"></path><path d="M 132.39 198.91 L 183.50 179.56 L 183.50 175.52 L 136.50 192.78 L 132.39 198.91 Z" fill="#ffffff" fill-rule="nonzero" node-id="235" stroke="none" target-height="23.39" target-width="51.11" target-x="132.39" target-y="175.52"></path><path d="M 132.39 198.91 L 183.50 179.56 L 183.50 175.52 L 136.50 192.78 L 132.39 198.91 Z" fill="none" node-id="237" stroke="#16326f" stroke-linecap="round" stroke-width="1.09" target-height="23.39" target-width="51.11" target-x="132.39" target-y="175.52"></path><path d="M 111.00 103.28 L 111.00 103.28 C 114.30 104.23 117.80 104.33 121.15 103.57 L 122.00 103.28" fill="none" node-id="239" stroke="#16326f" stroke-linecap="round" stroke-width="2" target-height="1.051239" target-width="11" target-x="111" target-y="103.28"></path><path d="M 31.00 147.76 L 57.17 194.64 L 132.39 194.64 L 110.59 147.76 L 31.00 147.76 Z" fill="#ffffff" fill-rule="nonzero" node-id="241" stroke="none" target-height="46.880005" target-width="101.39" target-x="31" target-y="147.76"></path><path d="M 31.00 147.76 L 57.17 194.64 L 132.39 194.64 L 110.59 147.76 L 31.00 147.76 Z" fill="none" node-id="243" stroke="#16326f" stroke-linecap="round" stroke-width="1.09" target-height="46.880005" target-width="101.39" target-x="31" target-y="147.76"></path><g clip-path="url(#b1a3a160-783f-4314-883b-cbb7af6618dd)" group-id="2" id="sillyvg_g_1" node-id="245"><path d="M 99.00 100.28 C 99.48 102.29 99.11 104.41 98.00 106.15 C 97.45 107.03 96.69 107.76 95.80 108.28 C 95.37 108.55 94.90 108.77 94.42 108.93 C 93.94 109.08 93.45 109.20 92.96 109.28 C 93.85 108.87 94.69 108.38 95.47 107.80 C 96.23 107.24 96.87 106.54 97.37 105.74 C 97.88 104.94 98.26 104.07 98.51 103.16 C 98.76 102.22 98.91 101.25 98.96 100.28" fill="#16326f" fill-rule="nonzero" group-id="2" node-id="247" stroke="none" target-height="9" target-width="6.515442" target-x="92.96" target-y="100.28"></path></g><g clip-path="url(#af1b8371-f0f5-4a5f-839f-963b9ff25e68)" group-id="3" id="sillyvg_g_2" node-id="250"><path d="M 136.05 100.28 C 136.10 101.25 136.25 102.22 136.50 103.16 C 136.75 104.07 137.13 104.94 137.64 105.74 C 138.14 106.54 138.78 107.24 139.54 107.80 C 140.32 108.38 141.16 108.87 142.05 109.28 C 141.56 109.20 141.07 109.08 140.59 108.93 C 139.12 108.43 137.86 107.45 137.01 106.15 C 135.90 104.41 135.53 102.29 136.01 100.28" fill="#16326f" fill-rule="nonzero" group-id="3" node-id="252" stroke="none" target-height="9" target-width="6.515442" target-x="135.53456" target-y="100.28"></path></g><g clip-path="url(#ae243dd9-23f3-4d8a-a59d-3313746cc6b2)" group-id="4" node-id="257"><path d="M 157.00 178.00 C 156.21 170.03 151.61 162.93 144.66 158.95 C 122.55 173.03 137.48 188.52 148.52 182.64 C 150.95 181.36 153.85 179.72 157.00 178.00" fill="#ffffff" fill-rule="nonzero" group-id="4,5" node-id="259" stroke="none" target-height="29.570007" target-width="34.449997" target-x="122.55" target-y="158.95"></path><path d="M 174.50 146.78 C 174.50 146.78 168.36 146.71 149.79 156.05 C 147.90 157.00 146.20 157.97 144.67 158.94 C 151.62 162.93 156.21 170.03 157.00 178.00 C 164.79 173.77 174.10 169.00 181.48 167.79 C 182.77 166.90 183.95 165.86 185.00 164.70 L 184.59 153.12 C 180.79 149.12 174.54 146.78 174.54 146.78" fill="#ffffff" fill-rule="nonzero" group-id="4,5" node-id="261" stroke="none" target-height="31.289993" target-width="40.33" target-x="144.67" target-y="146.71"></path></g><path d="M 174.50 146.78 C 174.50 146.78 168.36 146.71 149.79 156.05 C 147.90 157.00 146.20 157.97 144.67 158.94 C 122.57 173.02 137.50 188.51 148.54 182.63 C 150.97 181.35 153.87 179.71 157.02 177.99 C 164.81 173.76 174.12 168.99 181.50 167.78" fill="none" node-id="265" stroke="#16326f" stroke-linecap="round" stroke-width="1.85" target-height="41.799988" target-width="58.93" target-x="122.57" target-y="146.71"></path><path d="M 157.08 179.32 C 157.08 179.32 157.08 178.83 157.02 177.99 C 156.23 170.02 151.62 162.92 144.67 158.94" fill="none" node-id="267" stroke="#16326f" stroke-linecap="butt" stroke-width="1.64" target-height="20.380005" target-width="12.410004" target-x="144.67" target-y="158.94"></path><path d="M 189.23 177.15 L 198.70 176.53" fill="#ffffff" fill-rule="nonzero" node-id="269" stroke="none" target-height="0.6199951" target-width="9.470001" target-x="189.23" target-y="176.53"></path><path d="M 189.23 177.15 L 198.70 176.53" fill="none" node-id="271" stroke="#16326f" stroke-linecap="round" stroke-width="1.5" target-height="0.6199951" target-width="9.470001" target-x="189.23" target-y="176.53"></path><path d="M 188.14 180.33 L 197.24 183.02" fill="#ffffff" fill-rule="nonzero" node-id="273" stroke="none" target-height="2.6900024" target-width="9.100006" target-x="188.14" target-y="180.33"></path><path d="M 188.14 180.33 L 197.24 183.02" fill="none" node-id="275" stroke="#16326f" stroke-linecap="round" stroke-width="1.5" target-height="2.6900024" target-width="9.100006" target-x="188.14" target-y="180.33"></path><path d="M 31.09 147.86 L 110.68 147.86 L 113.59 143.88 L 35.27 143.88 L 31.09 147.86 Z" fill="none" node-id="277" stroke="#16326f" stroke-linecap="round" stroke-width="1.09" target-height="3.9799957" target-width="82.5" target-x="31.09" target-y="143.88"></path></svg>